:version 1.10
:name ASF
:units
  mass 1
  length 1
  angle deg
:documentation
  ASF file generated by Kaydara
:root
  axis xyz
  order  tx ty tz rx ry rz
  position 0 0 0
  orientation 0 0 0
:bonedata
  begin
    id 1
    name RightUpLegDummy
    direction -0.718183 -0.695806 0.00816078
    length 4.904
    axis 0 0 0 xyz
  end
  begin
    id 2
    name RightUpLeg
    direction 3.53373e-006 -0.995788 0.0916898
    length 17.4976
    axis -3.49089 -0.000906625 0.000286804 xyz
    dof rx ry rz
  end
  begin
    id 3
    name RightLeg
    direction 0.00371092 -0.995096 -0.0988419
    length 16.5821
    axis 3.68512 0.0193738 -0.131023 xyz
    dof rx ry rz
  end
  begin
    id 4
    name RightFoot
    direction 0.00079151 -0.46099 0.887405
    length 3.77069
    axis 4.81691e-005 -0.120479 -0.188788 xyz
    dof rx ry rz
  end
  begin
    id 5
    name RightToes
    direction 0 0 0
    length 0
    axis 0 0 0 xyz
    dof rx ry rz
  end
  begin
    id 6
    name SpineDummy
    direction 8.3039e-015 1 4.57515e-016
    length 4.6813
    axis 0 0 0 xyz
  end
  begin
    id 7
    name Spine
    direction -3.15643e-008 0.999988 0.00495137
    length 10.1015
    axis -0.001389 0.000121418 2.40972e-006 xyz
    dof rx ry rz
  end
  begin
    id 8
    name Spine1
    direction 0 0 0
    length 0
    axis -0.001389 0.000121451 1.30017e-006 xyz
    dof rx ry rz
  end
  begin
    id 9
    name HEadDummy
    direction -1.99912e-008 0.999999 0.00127422
    length 3.43865
    axis -0.001389 0.000121451 1.30017e-006 xyz
  end
  begin
    id 10
    name HEad
    direction 0 0 0
    length 0
    axis 0 0 0 xyz
    dof rx ry rz
  end
  begin
    id 11
    name LeftShoulder1Dummy
    direction 0.998891 -0.0402509 -0.0244456
    length 3.5433
    axis -0.001389 0.000121451 1.30017e-006 xyz
  end
  begin
    id 12
    name LeftShoulder1
    direction 0.99951 -0.000327763 0.0313091
    length 4.05031
    axis -0.001389 0.000121451 1.30017e-006 xyz
    dof rx ry rz
  end
  begin
    id 13
    name LeftArm
    direction 0.998561 -0.00100056 -0.0536182
    length 10.3537
    axis -23.1894 0.134784 0.967509 xyz
    dof rx ry rz
  end
  begin
    id 14
    name LeftForeArm
    direction 0.998903 0.00866432 0.046012
    length 8.70632
    axis -9.91835 -0.06569 -0.177794 xyz
    dof rx ry rz
  end
  begin
    id 15
    name LeftHand
    direction 0 0 0
    length 0
    axis 0 0 0 xyz
    dof rx ry rz
  end
  begin
    id 16
    name RightShoulderDummy
    direction -0.998891 -0.0402509 -0.0244414
    length 3.5433
    axis -0.001389 0.000121451 1.30017e-006 xyz
  end
  begin
    id 17
    name RightShoulder
    direction -0.99951 -0.000327807 0.0313133
    length 4.05031
    axis 0.215806 0.000203643 -0.0068026 xyz
    dof rx ry rz
  end
  begin
    id 18
    name RightArm
    direction -0.998573 -0.000999564 -0.053403
    length 10.3947
    axis -23.2009 -0.134239 -0.964101 xyz
    dof rx ry rz
  end
  begin
    id 19
    name RightForeArm
    direction -0.998898 0.00868028 0.0461306
    length 8.68355
    axis -9.92322 0.0658061 0.178868 xyz
    dof rx ry rz
  end
  begin
    id 20
    name RightHand
    direction 0 0 0
    length 0
    axis 0 0 0 xyz
    dof rx ry rz
  end
  begin
    id 21
    name LeftUpLegDummy
    direction 0.718183 -0.695806 0.00816078
    length 4.904
    axis 0 0 0 xyz
  end
  begin
    id 22
    name LeftUpLeg
    direction -6.81752e-006 -0.995793 0.0916337
    length 17.4976
    axis -3.48766 0.00143442 -0.000524262 xyz
    dof rx ry rz
  end
  begin
    id 23
    name LeftLeg
    direction -0.00601358 -0.995091 -0.0987824
    length 16.5821
    axis 3.68178 -0.00654042 -0.000285133 xyz
    dof rx ry rz
  end
  begin
    id 24
    name LeftFoot
    direction -0.00417578 -0.460984 0.887399
    length 3.77069
    axis 1.87233e-006 4.66016e-005 -8.6538e-006 xyz
    dof rx ry rz
  end
  begin
    id 25
    name LeftToes
    direction 0 0 0
    length 0
    axis 0 0 0 xyz
    dof rx ry rz
  end
:hierarchy
  begin
    root RightUpLegDummy SpineDummy LeftUpLegDummy
    RightUpLegDummy RightUpLeg
    RightUpLeg RightLeg
    RightLeg RightFoot
    RightFoot RightToes
    SpineDummy Spine
    Spine Spine1
    Spine1 HEadDummy LeftShoulder1Dummy RightShoulderDummy
    HEadDummy HEad
    LeftShoulder1Dummy LeftShoulder1
    LeftShoulder1 LeftArm
    LeftArm LeftForeArm
    LeftForeArm LeftHand
    RightShoulderDummy RightShoulder
    RightShoulder RightArm
    RightArm RightForeArm
    RightForeArm RightHand
    LeftUpLegDummy LeftUpLeg
    LeftUpLeg LeftLeg
    LeftLeg LeftFoot
    LeftFoot LeftToes
  end

:SAMPLES-PER-SECOND 30
:FULLY-SPECIFIED
:DEGREES
128
root  -34.3125 38.7172 -5.11014 39.0968 -80.5984 -49.5803
RightUpLeg  -9.81822 -19.8057 8.79742
RightLeg  31.5462 -1.95151 -1.58316
RightFoot  -11.7119 -0.0977876 -5.92608
RightToes  0.000481921 0.542163 -0.142578
Spine  4.58894 -4.45768 2.90774
Spine1  9.37078 -7.25792 14.8833
HEad  -12.2093 2.64356 -3.72783
LeftShoulder1  10.5097 -14.5697 -50.7625
LeftArm  -1.04086 -5.54162 -24.149
LeftForeArm  35.3336 -28.7814 -4.6126
LeftHand  -0.25398 0.0180481 5.50724
RightShoulder  5.24031 8.58439 37.3335
RightArm  -17.9247 -13.6023 29.9662
RightForeArm  -37.9651 15.6118 7.17546
RightHand  -1.89236 7.79445 -16.9812
LeftUpLeg  -6.76946 9.11745 11.0383
LeftLeg  70.1571 2.05472 7.15471
LeftFoot  4.04328 0.407559 -3.22848
LeftToes  1.06246e-005 4.65868e-005 -8.65514e-006
129
root  -35.6881 39.1837 -4.94176 38.2863 -81.8793 -48.3515
RightUpLeg  -5.92989 -19.9823 6.55974
RightLeg  28.6086 -0.40746 -0.386314
RightFoot  -12.535 -0.131094 -4.3549
RightToes  0.000481921 0.542163 -0.142578
Spine  3.24168 -3.48852 4.37787
Spine1  10.0829 -5.50147 11.9423
HEad  -12.1896 2.34431 -3.93179
LeftShoulder1  10.8165 -14.5534 -52.2575
LeftArm  -1.5514 -0.241536 -25.2367
LeftForeArm  31.2627 -15.3256 -4.66709
LeftHand  -0.25398 0.0180481 5.50724
RightShoulder  5.25119 8.64572 37.205
RightArm  -12.809 -9.40161 30.9173
RightForeArm  -37.6668 18.3107 7.20268
RightHand  -1.81192 7.32039 -16.8613
LeftUpLeg  -11.4948 8.80052 9.24731
LeftLeg  68.4459 2.27772 7.15115
LeftFoot  1.76631 0.316363 -2.85708
LeftToes  1.06246e-005 4.65868e-005 -8.65514e-006
130
root  -37.0546 39.6231 -4.75519 38.2047 -83.3496 -47.5964
RightUpLeg  -2.23189 -18.8819 4.06226
RightLeg  25.2816 0.0624246 1.18995
RightFoot  -12.7774 -0.130174 -3.47647
RightToes  0.000481921 0.542163 -0.142578
Spine  1.96292 -2.31755 6.19412
Spine1  10.1647 -3.37494 8.25265
HEad  -11.5696 1.75536 -4.02836
LeftShoulder1  11.19 -14.7437 -53.4599
LeftArm  -9.06307 6.20399 -24.7853
LeftForeArm  31.748 -3.37446 -6.03463
LeftHand  -0.25398 0.0180481 5.50724
RightShoulder  5.08663 8.39649 36.742
RightArm  -8.15158 -6.16545 32.1887
RightForeArm  -39.0877 22.0455 6.87897
RightHand  -1.72362 6.62217 -16.95
LeftUpLeg  -15.4923 8.29662 7.40238
LeftLeg  63.7064 2.39462 5.93145
LeftFoot  0.196197 0.292257 -2.90338
LeftToes  1.06246e-005 4.65868e-005 -8.65514e-006
131
root  -38.3795 39.9869 -4.5853 38.8664 -85.2742 -47.6895
RightUpLeg  1.33151 -14.704 1.57577
RightLeg  21.8486 -1.92116 2.66556
RightFoot  -13.2242 -0.129595 -2.49671
RightToes  0.000481921 0.542163 -0.142578
Spine  1.53875 -1.01916 7.40074
Spine1  9.68472 -1.17181 4.47599
HEad  -11.2934 1.25475 -4.11336
LeftShoulder1  11.3724 -14.8938 -53.8722
LeftArm  -8.93695 15.1552 -24.132
LeftForeArm  27.4994 0.314962 -5.04923
LeftHand  -0.25398 0.0180481 5.50724
RightShoulder  4.91788 8.07271 36.4873
RightArm  -6.334 -3.30259 32.9876
RightForeArm  -38.5007 26.2008 7.22608
RightHand  -1.62206 6.03668 -16.7617
LeftUpLeg  -18.2454 8.36004 5.68727
LeftLeg  56.2163 2.31044 4.23181
LeftFoot  -0.949772 0.29497 -3.18885
LeftToes  1.06246e-005 4.65868e-005 -8.65514e-006
132
root  -39.6651 40.1928 -4.42623 42.2309 -87.1317 -50.5577
RightUpLeg  4.45772 -11.8667 -0.448443
RightLeg  18.9719 -2.46851 3.80579
RightFoot  -14.1468 -0.128219 -1.32648
RightToes  0.000481921 0.542163 -0.142578
Spine  1.64111 0.0146169 8.13092
Spine1  9.22117 0.60079 1.15853
HEad  -12.0978 1.15787 -4.29176
LeftShoulder1  11.1962 -14.7551 -53.455
LeftArm  -7.7904 25.7556 -23.0135
LeftForeArm  27.9189 -2.49912 -5.02075
LeftHand  -0.25398 0.0180481 5.50724
RightShoulder  4.80147 7.8416 36.3298
RightArm  -6.06418 -0.317055 33.2439
RightForeArm  -34.9868 30.4327 8.2504
RightHand  -1.54907 5.70354 -16.491
LeftUpLeg  -19.7729 9.10536 4.45678
LeftLeg  46.3963 2.08004 2.73609
LeftFoot  -0.938343 0.424116 -4.57575
LeftToes  1.06246e-005 4.65868e-005 -8.65514e-006
133
root  -40.9411 40.2631 -4.2517 66.0532 -88.3826 -73.75
RightUpLeg  6.93381 -10.677 -1.83252
RightLeg  16.8908 -1.72392 4.55359
RightFoot  -14.9009 -0.131933 -0.986074
RightToes  0.000481921 0.542163 -0.142578
Spine  1.53261 0.940501 9.34833
Spine1  9.00153 2.20103 -2.12108
HEad  -13.4276 0.966694 -4.46589
LeftShoulder1  10.753 -14.3486 -52.5389
LeftArm  -4.63178 35.7358 -21.1331
LeftForeArm  30.317 -6.69581 -5.75845
LeftHand  -0.25398 0.0180481 5.50724
RightShoulder  4.70824 7.69908 36.0429
RightArm  -5.7139 2.22129 33.0261
RightForeArm  -30.2859 34.9208 9.35434
RightHand  -1.50628 5.34186 -16.5648
LeftUpLeg  -20.2518 10.4019 3.80183
LeftLeg  34.7633 1.85859 1.73906
LeftFoot  0.147161 0.619376 -6.16672
LeftToes  1.06246e-005 4.65868e-005 -8.65514e-006
134
root  -42.2096 40.2777 -4.06529 123.074 -88.4508 -130.194
RightUpLeg  9.15655 -10.2607 -2.73925
RightLeg  15.2022 -0.398271 4.83482
RightFoot  -15.4613 -0.165584 -1.67407
RightToes  0.000481921 0.542163 -0.142578
Spine  1.18991 2.1554 11.0361
Spine1  9.11749 4.13184 -5.58866
HEad  -14.2857 0.102507 -4.55143
LeftShoulder1  10.1446 -13.8263 -51.0902
LeftArm  -0.0916791 43.6616 -18.8361
LeftForeArm  32.4771 -8.80714 -6.6998
LeftHand  -0.25398 0.0180481 5.50724
RightShoulder  4.62527 7.58326 35.7406
RightArm  -5.60927 3.74066 32.0962
RightForeArm  -25.7462 39.5954 10.6703
RightHand  -1.47358 4.79448 -17.0406
LeftUpLeg  -19.6933 12.1617 3.4375
LeftLeg  22.0109 1.11202 0.892905
LeftFoot  1.42919 0.693068 -6.27889
LeftToes  1.06246e-005 4.65868e-005 -8.65514e-006
135
root  -43.4894 40.1924 -3.8724 151.739 -87.4065 -158.726
RightUpLeg  11.6545 -10.2177 -3.62817
RightLeg  14.0829 1.19201 4.80072
RightFoot  -16.7572 -0.194997 -1.76738
RightToes  0.000481921 0.542163 -0.142578
Spine  0.795031 3.42619 12.2579
Spine1  10.0149 6.07951 -8.26512
HEad  -14.5624 -1.19289 -4.70164
LeftShoulder1  9.40323 -13.2562 -48.9785
LeftArm  3.24895 49.2777 -17.4669
LeftForeArm  34.6855 -8.38604 -7.26521
LeftHand  -0.25398 0.0180481 5.50724
RightShoulder  4.54262 7.44398 35.5204
RightArm  -5.79487 4.68884 30.6731
RightForeArm  -22.0715 43.7058 12.0117
RightHand  -1.43434 4.33145 -17.347
LeftUpLeg  -18.221 11.6895 4.04698
LeftLeg  10.0142 1.58835 -0.461394
LeftFoot  1.94069 0.621029 -5.42784
LeftToes  1.06246e-005 4.65868e-005 -8.65514e-006
136
root  -44.8307 39.9517 -3.64265 150.665 -87.1311 -157.934
RightUpLeg  14.4518 -10.8209 -4.77954
RightLeg  13.9462 2.78806 4.79397
RightFoot  -18.6701 -0.157806 -0.501188
RightToes  0.000481921 0.542163 -0.142578
Spine  0.0831838 4.15114 12.5241
Spine1  11.7168 7.19883 -9.31174
HEad  -14.6307 -2.29508 -5.01588
LeftShoulder1  8.7346 -12.7743 -46.8209
LeftArm  3.24001 53.3265 -17.7128
LeftForeArm  36.855 -6.35157 -7.04029
LeftHand  -0.25398 0.0180481 5.50724
RightShoulder  4.44173 7.26516 35.2767
RightArm  -5.98693 5.63355 29.5452
RightForeArm  -19.1185 46.3062 12.9411
RightHand  -1.38708 4.17997 -17.0477
LeftUpLeg  -16.6206 5.41014 6.50545
LeftLeg  1.86075 7.24419 -2.69258
LeftFoot  1.38353 0.533886 -4.85466
LeftToes  1.06246e-005 4.65868e-005 -8.65514e-006
137
root  -46.2619 39.6313 -3.352 134.606 -87.9004 -142.142
RightUpLeg  17.0897 -12.1209 -6.16572
RightLeg  14.7748 3.97455 4.70054
RightFoot  -20.2066 -0.0685041 0.897895
RightToes  0.000481921 0.542163 -0.142578
Spine  -1.07318 4.20374 11.953
Spine1  13.3129 7.31045 -9.26673
HEad  -14.3165 -3.15669 -5.21361
LeftShoulder1  8.46326 -12.6769 -45.6036
LeftArm  1.70145 57.0268 -18.5137
LeftForeArm  36.1111 -4.38557 -5.98495
LeftHand  -0.25398 0.0180481 5.50724
RightShoulder  4.34776 7.07927 35.1162
RightArm  -5.78217 6.17312 29.0922
RightForeArm  -17.2782 47.2882 13.2812
RightHand  -1.34218 4.14059 -16.579
LeftUpLeg  -16.6746 4.36284 5.97984
LeftLeg  0.131417 7.73391 -2.97681
LeftFoot  1.39444 0.461943 -4.22222
LeftToes  1.06246e-005 4.65868e-005 -8.65514e-006
138
root  -47.777 39.3128 -3.01483 98.2967 -88.7656 -105.915
RightUpLeg  19.1099 -13.5542 -7.5833
RightLeg  16.6232 4.86069 3.90011
RightFoot  -21.42 0.0699207 2.39595
RightToes  0.000481921 0.542163 -0.142578
Spine  -2.28715 4.08961 10.7354
Spine1  14.1192 7.08386 -8.83584
HEad  -13.4154 -4.27275 -4.90058
LeftShoulder1  8.59476 -12.9286 -45.5993
LeftArm  0.482667 60.4092 -18.5918
LeftForeArm  32.6685 -3.46802 -5.02165
LeftHand  -0.25398 0.0180481 5.50724
RightShoulder  4.28848 6.88943 35.2926
RightArm  -5.044 5.61429 29.0326
RightForeArm  -16.838 47.2504 13.239
RightHand  -1.31573 3.95271 -16.5732
LeftUpLeg  -17.632 4.58948 4.42868
LeftLeg  3.34276 7.72413 -2.4146
LeftFoot  4.60127 0.304378 -2.43135
LeftToes  1.06246e-005 4.65868e-005 -8.65514e-006
139
root  -49.3158 39.0137 -2.67242 81.2675 -89.4613 -89.1357
RightUpLeg  20.1408 -13.4502 -8.69164
RightLeg  20.1529 5.02785 2.39551
RightFoot  -22.2381 0.405553 5.82568
RightToes  0.000481921 0.542163 -0.142578
Spine  -2.97659 4.19291 8.73438
Spine1  14.4872 6.97513 -7.97171
HEad  -12.7225 -5.78155 -3.96972
LeftShoulder1  8.7079 -12.9383 -46.1947
LeftArm  0.141881 61.8905 -18.4345
LeftForeArm  29.2086 -3.37601 -4.72876
LeftHand  -0.25398 0.0180481 5.50724
RightShoulder  4.25833 6.71491 35.6928
RightArm  -4.03129 4.10068 29.321
RightForeArm  -16.8076 46.3928 12.853
RightHand  -1.31673 3.79633 -16.8508
LeftUpLeg  -18.7507 7.34025 1.95862
LeftLeg  8.71126 4.81142 -1.29509
LeftFoot  9.88983 -0.00407285 -0.298442
LeftToes  1.06246e-005 4.65868e-005 -8.65514e-006
140
root  -50.7401 38.834 -2.35761 -48.8233 -89.131 40.3886
RightUpLeg  19.2618 -10.1345 -9.26438
RightLeg  26.4264 2.5868 1.08256
RightFoot  -20.1416 0.675221 10.7817
RightToes  0.000481921 0.542163 -0.142578
Spine  -2.66986 4.24718 5.94157
Spine1  14.7256 6.85679 -7.02526
HEad  -13.2096 -7.20928 -2.51855
LeftShoulder1  8.48626 -12.3861 -46.5889
LeftArm  -0.74973 60.4123 -19.3753
LeftForeArm  28.0933 -3.54285 -4.82747
LeftHand  -0.25398 0.0180481 5.50724
RightShoulder  4.31544 6.74572 36.1145
RightArm  -2.94045 2.21377 30.357
RightForeArm  -16.1482 44.1377 11.8744
RightHand  -1.33457 3.97428 -16.767
LeftUpLeg  -19.3094 11.5637 -1.12121
LeftLeg  13.8115 -0.163767 -0.568241
LeftFoot  12.5358 -0.359353 1.36199
LeftToes  1.06246e-005 4.65868e-005 -8.65514e-006
